<svg width="300" height="300" viewBox="0 0 300 300" fill="none" xmlns="http://www.w3.org/2000/svg">
<rect width="300" height="300" fill="#2BBC8A"/>
<path d="M36.8072 88.2981C41.741 88.2981 48.2741 88.0818 56.4066 87.6491C63.997 87.2164 69.6355 87 73.3223 87C88.0151 87 99.2108 90.4076 106.91 97.2228C114.663 104.038 118.539 114.829 118.539 129.595C118.539 139.006 116.614 147.066 112.765 153.773C108.97 160.48 103.358 165.591 95.9307 169.107C88.5572 172.623 79.5843 174.381 69.012 174.381C63.3735 174.381 58.6566 174.326 54.8614 174.218V211.783H29V88.2981H36.8072ZM68.3614 154.827C75.6265 154.827 81.509 152.907 86.009 149.067C90.5633 145.227 92.8404 138.628 92.8404 129.27C92.8404 121.428 90.7259 115.478 86.497 111.421C82.2681 107.31 76.1416 105.417 68.1175 105.742C64.9729 105.85 62.3976 105.985 60.3916 106.147C58.4398 106.256 56.5964 106.499 54.8614 106.878V154.178C58.3855 154.611 62.8855 154.827 68.3614 154.827Z" fill="white"/>
<path d="M179.533 88.2981L196.042 153.205L202.304 180.466L207.021 153.205L221.904 88.2981H257.199L272 211.783H246.626L240.527 145.578L238.331 107.77L229.223 145.578L211.494 213H191L171.401 145.578L162.211 107.77L159.283 145.578L153.997 211.783L130.006 211.864L143.181 88.2981H179.533Z" fill="white"/>
</svg>
