<svg width="113" height="23" xmlns="http://www.w3.org/2000/svg">
    <path
    d="M.45 22.9v-18h3.58v2.2h.16c.16-.34.39-.7.7-1.07.3-.37.7-.67 1.18-.92a4.92 4.92 0 0 1 6.42 2.62c.48 1 .73 2.24.73 3.74 0 1.46-.24 2.7-.71 3.7s-1.1 1.76-1.91 2.28c-.8.5-1.7.76-2.7.76-.7 0-1.3-.11-1.8-.35A3.72 3.72 0 0 1 4.9 17a4.46 4.46 0 0 1-.71-1.09h-.11v7H.45ZM4 11.46c0 .78.11 1.46.33 2.04.21.58.53 1.03.93 1.36.41.31.91.47 1.5.47s1.09-.16 1.5-.48c.4-.33.71-.79.92-1.37.22-.58.33-1.25.33-2.02 0-.75-.1-1.42-.32-1.99a2.97 2.97 0 0 0-.93-1.35c-.4-.32-.9-.48-1.5-.48s-1.1.15-1.5.47c-.4.3-.72.75-.93 1.33A5.75 5.75 0 0 0 4 11.45ZM15.64 18V4.9h3.46v2.32h.15c.27-.77.73-1.37 1.36-1.82a3.9 3.9 0 0 1 2.29-.66c.9 0 1.66.22 2.29.67a3.17 3.17 0 0 1 1.26 1.8h.14c.27-.74.75-1.34 1.45-1.79a4.5 4.5 0 0 1 2.5-.68c1.22 0 2.2.39 2.97 1.17.77.77 1.15 1.87 1.15 3.29V18h-3.62V9.91c0-.73-.2-1.27-.58-1.63A2.03 2.03 0 0 0 29 7.73c-.66 0-1.17.21-1.54.63-.37.42-.56.96-.56 1.65V18H23.4V9.84a2.1 2.1 0 0 0-.55-1.54 1.9 1.9 0 0 0-1.44-.57 2 2 0 0 0-1.1.3c-.31.2-.56.49-.75.85-.19.36-.28.78-.28 1.26V18h-3.63ZM42.35 18.21c-1 0-1.9-.25-2.7-.76a5.32 5.32 0 0 1-1.91-2.28c-.47-1-.7-2.24-.7-3.7 0-1.5.24-2.75.73-3.74a4.94 4.94 0 0 1 6.4-2.62c.5.25.9.55 1.2.92.3.37.54.73.7 1.08h.1V.55h3.63V18h-3.58v-2.1h-.15c-.17.37-.42.73-.73 1.09-.3.35-.7.64-1.2.87-.49.24-1.08.35-1.79.35Zm1.15-2.89c.59 0 1.08-.16 1.48-.47.41-.33.73-.78.94-1.36a5.7 5.7 0 0 0 .33-2.04c0-.77-.1-1.45-.32-2.02a2.91 2.91 0 0 0-.94-1.33c-.4-.32-.9-.47-1.49-.47-.6 0-1.1.16-1.5.48-.42.33-.73.78-.94 1.35a5.79 5.79 0 0 0-.31 2c0 .76.1 1.43.31 2.01.22.58.53 1.04.93 1.37.41.32.91.48 1.51.48ZM56.52 18.25c-.84 0-1.58-.15-2.24-.44a3.6 3.6 0 0 1-1.55-1.3 3.9 3.9 0 0 1-.56-2.17c0-.72.13-1.33.4-1.83s.63-.9 1.1-1.2c.45-.3.98-.52 1.56-.67.6-.16 1.21-.27 1.86-.33a47.1 47.1 0 0 0 1.84-.22c.47-.07.8-.18 1.01-.32a.71.71 0 0 0 .32-.63v-.05c0-.54-.17-.96-.51-1.26a2.1 2.1 0 0 0-1.43-.44c-.66 0-1.18.14-1.56.43a2 2 0 0 0-.77 1.08l-3.36-.28a4.56 4.56 0 0 1 2.94-3.4A8.38 8.38 0 0 1 60.42 5c.67.16 1.27.43 1.78.79a3.85 3.85 0 0 1 1.69 3.38V18h-3.44v-1.82h-.1A3.7 3.7 0 0 1 58.22 18c-.5.17-1.06.26-1.71.26Zm1.04-2.5c.53 0 1-.11 1.41-.32.41-.22.73-.51.97-.87.23-.37.34-.78.34-1.24v-1.39c-.1.08-.27.14-.46.2a8.6 8.6 0 0 1-1.4.3l-.66.09c-.42.06-.8.16-1.11.3-.32.13-.57.32-.75.55-.17.23-.26.51-.26.85 0 .5.18.88.54 1.14.36.25.82.38 1.38.38ZM66.7 18V4.9h3.53v2.3h.13a3.16 3.16 0 0 1 3.14-2.47 5.5 5.5 0 0 1 1.15.12v3.22a6.35 6.35 0 0 0-1.53-.2 2.9 2.9 0 0 0-1.44.35 2.57 2.57 0 0 0-1.34 2.37V18H66.7ZM84.15 4.9v2.74h-7.89V4.9h7.89Zm-6.1-3.13h3.63v12.2c0 .34.05.6.16.8.1.17.24.3.42.37.19.08.4.12.65.12a3.1 3.1 0 0 0 .9-.12l.57 2.7-.76.2c-.33.07-.73.12-1.2.14a5.51 5.51 0 0 1-2.3-.35 3.21 3.21 0 0 1-1.53-1.24 3.8 3.8 0 0 1-.54-2.14V1.77ZM94.9 12.43V4.9h3.64V18h-3.49v-2.38h-.14c-.3.77-.78 1.39-1.47 1.85-.68.47-1.51.7-2.5.7a4.1 4.1 0 0 1-3.87-2.3 5.87 5.87 0 0 1-.56-2.63V4.91h3.63v7.69c0 .77.22 1.38.62 1.83.41.45.96.67 1.65.67.44 0 .85-.1 1.23-.3.38-.2.68-.5.92-.9s.35-.89.35-1.47ZM112.33 8.64l-3.32.2a1.72 1.72 0 0 0-.37-.76 1.95 1.95 0 0 0-.74-.55c-.3-.15-.66-.22-1.08-.22-.56 0-1.04.12-1.42.36-.4.23-.58.55-.58.94a1 1 0 0 0 .37.8c.25.2.68.38 1.29.51l2.37.48c1.27.26 2.22.68 2.84 1.26.63.58.94 1.34.94 2.28 0 .86-.25 1.61-.76 2.26a4.92 4.92 0 0 1-2.06 1.52c-.87.36-1.87.54-3 .54a7.08 7.08 0 0 1-4.15-1.09 4.22 4.22 0 0 1-1.8-2.96l3.57-.19c.11.53.37.93.79 1.21.41.27.94.4 1.59.4.64 0 1.15-.11 1.53-.36.4-.25.6-.57.6-.96a1 1 0 0 0-.42-.81 3 3 0 0 0-1.26-.5l-2.27-.45a5.43 5.43 0 0 1-2.85-1.33 3.3 3.3 0 0 1-.93-2.4c0-.85.23-1.57.68-2.18.46-.6 1.1-1.08 1.94-1.4.83-.34 1.81-.5 2.93-.5 1.65 0 2.95.35 3.9 1.05.96.7 1.51 1.65 1.67 2.85Z"
    ></path>
</svg>